HIERARCHY
ROOT Hips
{
	OFFSET 0.000000 89.005402 0.000000
	CHANNELS 6 Xposition Yposition Zposition Xrotation Yrotation Zrotation
	JOINT Spine
	{
		OFFSET 0.116900 10.681000 0.373400
		CHANNELS 3 Xrotation Yrotation Zrotation
		JOINT Spine1
		{
			OFFSET 0.000000 13.840401 0.053500
			CHANNELS 3 Xrotation Yrotation Zrotation
			JOINT Spine2
			{
				OFFSET 0.000000 14.712700 -0.366200
				CHANNELS 3 Xrotation Yrotation Zrotation
				JOINT Neck
				{
					OFFSET 0.000000 35.415497 -3.314200
					CHANNELS 3 Xrotation Yrotation Zrotation
					JOINT Head
					{
						OFFSET 0.000000 16.899200 1.218300
						CHANNELS 3 Xrotation Yrotation Zrotation
						JOINT HeadTop_End
						{
							OFFSET 0.000000 22.206207 2.192500
							CHANNELS 3 Xrotation Yrotation Zrotation
							End Site
							{
								OFFSET 0.000000 22.314178 0.000000
							}
						}
					}
				}
				JOINT LeftShoulder
				{
					OFFSET 12.896400 26.716293 -4.548400
					CHANNELS 3 Xrotation Yrotation Zrotation
					JOINT LeftArm
					{
						OFFSET 19.027000 -4.857010 -1.718400
						CHANNELS 3 Xrotation Yrotation Zrotation
						JOINT LeftForeArm
						{
							OFFSET 24.179897 0.000000 0.000000
							CHANNELS 3 Xrotation Yrotation Zrotation
							JOINT LeftHand
							{
								OFFSET 27.156403 0.000000 0.000000
								CHANNELS 3 Xrotation Yrotation Zrotation
								JOINT LeftHandIndex1
								{
									OFFSET 16.441200 0.000000 0.000000
									CHANNELS 3 Xrotation Yrotation Zrotation
									JOINT LeftHandIndex2
									{
										OFFSET 4.821899 0.000000 0.000000
										CHANNELS 3 Xrotation Yrotation Zrotation
										JOINT LeftHandIndex3
										{
											OFFSET 6.386497 0.000000 0.000000
											CHANNELS 3 Xrotation Yrotation Zrotation
											JOINT LeftHandIndex4
											{
												OFFSET 5.188988 0.000000 0.000000
												CHANNELS 3 Xrotation Yrotation Zrotation
												End Site
												{
													OFFSET -0.178703 5.185913 0.000177
												}
											}
										}
									}
								}
								JOINT LeftHandThumb1
								{
									OFFSET 6.534897 -5.032593 5.900300
									CHANNELS 3 Xrotation Yrotation Zrotation
									JOINT LeftHandThumb2
									{
										OFFSET 3.818176 -2.204422 2.204423
										CHANNELS 3 Xrotation Yrotation Zrotation
										JOINT LeftHandThumb3
										{
											OFFSET 3.252098 -1.877594 1.877601
											CHANNELS 3 Xrotation Yrotation Zrotation
											JOINT LeftHandThumb4
											{
												OFFSET 5.251778 -3.032120 3.032117
												CHANNELS 3 Xrotation Yrotation Zrotation
												End Site
												{
													OFFSET 0.000023 6.780014 0.000000
												}
											}
										}
									}
								}
							}
						}
					}
				}
				JOINT RightShoulder
				{
					OFFSET -12.896300 26.716293 -4.548400
					CHANNELS 3 Xrotation Yrotation Zrotation
					JOINT RightArm
					{
						OFFSET -19.027000 -4.857010 -1.718400
						CHANNELS 3 Xrotation Yrotation Zrotation
						JOINT RightForeArm
						{
							OFFSET -24.179897 0.000000 0.000000
							CHANNELS 3 Xrotation Yrotation Zrotation
							JOINT RightHand
							{
								OFFSET -27.156403 0.000000 0.000000
								CHANNELS 3 Xrotation Yrotation Zrotation
								JOINT RightHandThumb1
								{
									OFFSET -6.591202 -4.852203 5.988100
									CHANNELS 3 Xrotation Yrotation Zrotation
									JOINT RightHandThumb2
									{
										OFFSET -3.818176 -2.204422 2.204423
										CHANNELS 3 Xrotation Yrotation Zrotation
										JOINT RightHandThumb3
										{
											OFFSET -3.252098 -1.877594 1.877601
											CHANNELS 3 Xrotation Yrotation Zrotation
											JOINT RightHandThumb4
											{
												OFFSET -5.251778 -3.032120 3.032117
												CHANNELS 3 Xrotation Yrotation Zrotation
												End Site
												{
													OFFSET -0.000023 6.780014 0.000000
												}
											}
										}
									}
								}
								JOINT RightHandIndex1
								{
									OFFSET -16.029404 0.000000 0.000000
									CHANNELS 3 Xrotation Yrotation Zrotation
									JOINT RightHandIndex2
									{
										OFFSET -5.213303 0.000000 0.000000
										CHANNELS 3 Xrotation Yrotation Zrotation
										JOINT RightHandIndex3
										{
											OFFSET -6.386528 0.000000 0.000000
											CHANNELS 3 Xrotation Yrotation Zrotation
											JOINT RightHandIndex4
											{
												OFFSET -5.189026 0.000000 0.000000
												CHANNELS 3 Xrotation Yrotation Zrotation
												End Site
												{
													OFFSET 0.236702 5.183624 0.001972
												}
											}
										}
									}
								}
							}
						}
					}
				}
			}
		}
	}
	JOINT LeftUpLeg
	{
		OFFSET 14.073000 -7.904099 -1.463000
		CHANNELS 3 Xrotation Yrotation Zrotation
		JOINT LeftLeg
		{
			OFFSET -0.109806 -34.073280 4.093200
			CHANNELS 3 Xrotation Yrotation Zrotation
			JOINT LeftFoot
			{
				OFFSET 0.109806 -29.899420 -6.319000
				CHANNELS 3 Xrotation Yrotation Zrotation
				JOINT LeftToeBase
				{
					OFFSET 1.551100 -14.988700 20.535801
					CHANNELS 3 Xrotation Yrotation Zrotation
					JOINT LeftToe_End
					{
						OFFSET 0.221200 0.570800 13.248301
						CHANNELS 3 Xrotation Yrotation Zrotation
						End Site
						{
							OFFSET 0.000000 13.262435 0.000000
						}
					}
				}
			}
		}
	}
	JOINT RightUpLeg
	{
		OFFSET -13.839300 -7.904099 -1.463000
		CHANNELS 3 Xrotation Yrotation Zrotation
		JOINT RightLeg
		{
			OFFSET 0.109694 -34.073219 4.093300
			CHANNELS 3 Xrotation Yrotation Zrotation
			JOINT RightFoot
			{
				OFFSET -0.109694 -29.899384 -6.319200
				CHANNELS 3 Xrotation Yrotation Zrotation
				JOINT RightToeBase
				{
					OFFSET -1.551100 -14.988700 20.535801
					CHANNELS 3 Xrotation Yrotation Zrotation
					JOINT RightToe_End
					{
						OFFSET -0.221200 0.570900 13.248299
						CHANNELS 3 Xrotation Yrotation Zrotation
						End Site
						{
							OFFSET 0.000000 13.262440 0.000000
						}
					}
				}
			}
		}
	}
}
MOTION
Frames: 4
Frame Time: 0.033333
-1.319207 73.063828 0.800829 -7.129193 -57.130014 -6.092072 18.835179 -4.115451 -3.505192 5.159839 -0.896957 -1.037385 5.167281 -0.854161 -1.038255 4.660619 8.145574 -0.840220 -17.750294 45.399745 -8.147640 0.000000 -0.000000 -0.000000 0.653707 -4.288974 -11.289510 -39.301790 -4.879327 -22.512319 0.000011 -38.634941 0.000010 23.092806 -7.398644 10.346544 7.775671 6.956320 -86.152700 10.250104 6.003568 -119.372063 9.029930 6.538650 -108.236437 -0.000001 -0.000002 0.000003 4.891673 7.994787 1.884001 10.475081 36.544340 -16.206432 18.107193 67.043231 3.186307 -0.000000 0.000000 -0.000000 0.801960 4.286459 7.810953 -18.162865 -13.870360 31.041646 0.000043 84.447578 0.000016 10.568543 4.148013 -15.766203 2.101971 -10.083007 3.633758 25.660724 -30.716689 6.844825 36.126332 -53.497826 18.680871 -0.000002 -0.000000 0.000001 9.556167 -7.137701 86.157905 10.350209 -6.061988 119.375546 9.118072 -6.602326 108.238862 0.000002 0.000001 -0.000001 -33.137612 10.787827 35.645002 53.406311 2.007151 -1.796086 -11.376084 4.071078 -20.644884 -1.029715 -0.000019 -0.000009 0.000000 -0.000000 -0.000000 -26.640863 -6.084949 -21.999449 59.539879 11.276214 -1.820887 -30.151119 -2.081209 12.012279 -1.760942 -0.000001 -0.000002 0.000000 0.000000 -0.000000 
-1.491072 73.274002 0.855460 -6.870598 -56.703353 -5.957210 18.664520 -4.226367 -3.476799 5.113438 -0.934948 -1.032962 5.120910 -0.894609 -1.033370 4.755734 8.145882 -0.716287 -17.789585 45.325678 -8.049677 0.000001 0.000000 0.000000 0.653673 -4.285220 -11.274628 -38.989196 -5.124988 -22.375251 0.000013 -38.629105 0.000011 22.787582 -7.203946 10.360136 7.775671 6.956319 -86.152700 10.250108 6.003568 -119.372063 9.029930 6.538651 -108.236437 -0.000000 -0.000000 0.000002 4.891673 7.994786 1.884000 10.475079 36.544347 -16.206436 18.107199 67.043231 3.186310 -0.000001 0.000000 0.000000 0.799783 4.259893 7.793604 -17.824468 -14.155757 31.384412 0.000299 84.220597 -0.000288 10.488074 4.312554 -16.130369 2.101971 -10.083009 3.633755 25.660736 -30.716710 6.844834 36.126336 -53.497822 18.680868 0.000003 -0.000000 -0.000000 9.556164 -7.137703 86.157905 10.350208 -6.061990 119.375519 9.118067 -6.602324 108.238807 0.000003 -0.000000 -0.000001 -33.084258 10.793717 35.523985 52.854405 2.030622 -1.717266 -11.103548 3.972125 -20.595353 -1.144028 -0.000009 -0.000000 -0.000000 0.000002 0.000000 -26.137939 -6.591917 -22.025432 58.850822 11.457387 -1.630706 -30.030433 -2.309445 11.824706 -1.691275 -0.000020 0.000000 -0.000000 0.000000 0.000000 
-1.689523 73.510818 0.943311 -6.588821 -56.271210 -5.820037 18.459191 -4.276986 -3.485599 5.056926 -0.957035 -1.037143 5.064151 -0.919810 -1.037142 4.836123 8.138225 -0.543679 -17.815760 45.203732 -7.904452 0.000000 -0.000001 0.000000 0.653591 -4.260353 -11.217589 -38.693353 -5.428604 -22.243332 0.000004 -38.618904 0.000003 22.646105 -7.057707 10.296272 7.775669 6.956323 -86.152700 10.250108 6.003567 -119.372063 9.029926 6.538652 -108.236430 -0.000001 -0.000001 -0.000000 4.891672 7.994785 1.884001 10.475079 36.544340 -16.206434 18.107192 67.043238 3.186305 -0.000001 -0.000000 -0.000001 0.796485 4.220927 7.766378 -17.476186 -14.602463 31.853253 0.000025 83.813367 0.000022 10.124138 4.683519 -16.618508 2.101957 -10.082997 3.633737 25.660689 -30.716672 6.844821 36.126185 -53.497713 18.680762 0.000001 0.000000 0.000000 9.556136 -7.137707 86.157714 10.350181 -6.062002 119.375314 9.118052 -6.602338 108.238616 -0.000001 -0.000001 0.000002 -33.112634 10.990160 35.603799 52.280249 1.768248 -1.817892 -10.891796 3.850743 -20.259302 -1.356526 0.000018 0.000007 0.000000 -0.000001 -0.000000 -25.589032 -7.204540 -22.118077 58.020196 11.704216 -1.377844 -29.817546 -2.546292 11.614508 -1.524032 -0.000007 0.000003 -0.000000 -0.000000 0.000000 
-1.905351 73.747414 1.085075 -6.258179 -55.904473 -5.724480 18.226252 -4.239219 -3.470767 4.992070 -0.955109 -1.031172 4.998890 -0.920638 -1.030936 4.839241 8.118365 -0.348108 -17.805581 45.056299 -7.801194 -0.000001 0.000000 -0.000000 0.653326 -4.203674 -11.094418 -38.536317 -5.629782 -22.185096 -0.000013 -38.666831 -0.000023 22.778795 -6.936013 10.070895 7.775671 6.956321 -86.152700 10.250109 6.003569 -119.372063 9.029928 6.538652 -108.236437 0.000000 0.000002 -0.000001 4.891673 7.994784 1.883999 10.475079 36.544347 -16.206430 18.107195 67.043231 3.186303 -0.000000 -0.000001 -0.000000 0.792264 4.170172 7.732164 -17.120479 -15.120932 32.344477 0.000223 83.185099 -0.000214 9.240804 5.232602 -17.032943 2.101963 -10.082993 3.633729 25.660686 -30.716682 6.844821 36.126124 -53.497696 18.680724 -0.000001 -0.000000 -0.000001 9.556132 -7.137716 86.157673 10.350173 -6.062011 119.375219 9.118040 -6.602337 108.238541 -0.000003 0.000000 -0.000002 -33.624666 11.363735 36.006015 52.284743 1.411624 -2.182060 -10.968932 3.582076 -18.984145 -1.825055 0.000001 -0.000000 0.000000 -0.000001 0.000000 -25.007327 -7.815184 -22.116229 57.089545 11.937906 -1.128610 -29.547108 -2.803188 11.447082 -1.363267 -0.000007 0.000004 0.000000 -0.000000 0.000000 
